<svg xmlns="http://www.w3.org/2000/svg" viewBox="0 0 223.65 62.69"><defs><style>.cls-1,.cls-2{stroke:#fff;stroke-miterlimit:10;}.cls-2{stroke-width:0.25px;}.cls-3{fill:#fff;}.cls-4{fill:#ff3e00;}.cls-5{fill:#939598;}.cls-6{fill:#bf2f00;}</style></defs><g id="Layer_2" data-name="Layer 2"><g id="Layer_2-2" data-name="Layer 2"><path class="cls-1" d="M59.67,59.46V23.08h8v20a11.24,11.24,0,0,1,2-2,21.3,21.3,0,0,1,2.75-1.85,19.4,19.4,0,0,1,3-1.37,8.32,8.32,0,0,1,2.75-.55,4.89,4.89,0,0,1,.66,0,1.29,1.29,0,0,1,.62.28V23.07h8V59.45h-8V42.25a1.62,1.62,0,0,0-.62-1.37,2.23,2.23,0,0,0-1.42-.47,7.92,7.92,0,0,0-2.68.52,16.52,16.52,0,0,0-2.82,1.35,15.75,15.75,0,0,0-2.51,1.87,7.92,7.92,0,0,0-1.71,2.13V59.45h-8Z"/><path class="cls-1" d="M90.5,46.43a18.57,18.57,0,0,1,.71-5.12A12.58,12.58,0,0,1,93.37,37,10.86,10.86,0,0,1,97,34a11.76,11.76,0,0,1,10.1,0,10.86,10.86,0,0,1,3.6,3,13,13,0,0,1,2.16,4.33,18.82,18.82,0,0,1,0,10.24,12.58,12.58,0,0,1-2.16,4.33,10.86,10.86,0,0,1-3.6,3A10.66,10.66,0,0,1,102,60a11,11,0,0,1-5.09-1.11,10.25,10.25,0,0,1-3.58-3,13.23,13.23,0,0,1-2.13-4.36A18.2,18.2,0,0,1,90.5,46.43Zm16.25,10.7a1.32,1.32,0,0,0,.83-.24,1.36,1.36,0,0,0,.45-.59,3.07,3.07,0,0,0,.19-.78,7.63,7.63,0,0,0,0-.8,10.45,10.45,0,0,0-.52-2.68,37.46,37.46,0,0,0-1.4-3.88c-.58-1.41-1.26-2.84-2-4.31a41.87,41.87,0,0,0-2.37-4,17.42,17.42,0,0,0-2.44-3,3.51,3.51,0,0,0-2.27-1.16,1.18,1.18,0,0,0-1.23.71,3.88,3.88,0,0,0-.28,1.47,10.79,10.79,0,0,0,.52,2.8c.35,1.2.81,2.52,1.37,4a47.75,47.75,0,0,0,2,4.36,40.83,40.83,0,0,0,2.37,4,16.77,16.77,0,0,0,2.46,3A3.6,3.6,0,0,0,106.75,57.13Z"/><path class="cls-1" d="M116.61,32.88h8v14.5c0,.47,0,1.14.14,2a14.54,14.54,0,0,0,.52,2.56,7.65,7.65,0,0,0,1,2.23,2.05,2.05,0,0,0,1.75,1,3.11,3.11,0,0,0,2.63-1.42,10.38,10.38,0,0,0,1.54-3.36A24,24,0,0,0,133,46.4c.13-1.33.19-2.38.19-3.17a19.43,19.43,0,0,0-.19-2.65,22,22,0,0,0-.57-2.8,17.1,17.1,0,0,0-1-2.65A10.07,10.07,0,0,0,130,32.9h11.13V59.43h-8V54.08a8.64,8.64,0,0,1-1.42,2.08,12.2,12.2,0,0,1-2,1.78,10.79,10.79,0,0,1-2.37,1.26,6.94,6.94,0,0,1-2.49.47,6.28,6.28,0,0,1-3-.69,6.79,6.79,0,0,1-2.18-1.85,10.49,10.49,0,0,1-1.49-2.68,20.94,20.94,0,0,1-1-3.1,20.57,20.57,0,0,1-.47-3.17q-.12-1.59-.12-2.91V32.88Z"/><path class="cls-1" d="M144.22,46.43a24.52,24.52,0,0,1,.43-4.38,15.5,15.5,0,0,1,1.47-4.43,10.33,10.33,0,0,1,2.75-3.41,6.49,6.49,0,0,1,4.22-1.37,6.67,6.67,0,0,1,3.48.88,10.29,10.29,0,0,1,2.72,2.39q-.09-3.18-.5-6.63A30.47,30.47,0,0,0,157.35,23h.71a2.37,2.37,0,0,0,1.14.52,8.48,8.48,0,0,0,1.23.09,15.56,15.56,0,0,0,3.51-.4q1.76-.41,3.48-.9c1.15-.33,2.31-.63,3.46-.9a15.41,15.41,0,0,1,3.53-.4,6.44,6.44,0,0,1,4.05,1.26,4.51,4.51,0,0,1,1.63,3.81A4.89,4.89,0,0,1,179,29.34a3.78,3.78,0,0,1-3.08,1.33,3.73,3.73,0,0,1-3.08-1.35,4.93,4.93,0,0,1-1.09-3.2,5.42,5.42,0,0,1,.4-2.08,3.73,3.73,0,0,1,1.35-1.66l-.69-.07c-.21,0-.43,0-.69,0a11.83,11.83,0,0,0-2.44.26c-.81.17-1.6.35-2.39.54V59.43h-8V56.78a10.11,10.11,0,0,1-2.72,2.39,6.82,6.82,0,0,1-3.48.88,6.56,6.56,0,0,1-4.22-1.37,10.45,10.45,0,0,1-2.75-3.41,15.71,15.71,0,0,1-1.47-4.43A27.18,27.18,0,0,1,144.22,46.43Zm12,10.37a1.44,1.44,0,0,0,1.16-.64,5.53,5.53,0,0,0,.83-1.63,14.89,14.89,0,0,0,.54-2.23q.21-1.23.33-2.37c.08-.76.13-1.45.14-2.08s0-1.09,0-1.37q0-.66-.09-2.37a31.73,31.73,0,0,0-.4-3.51,14.35,14.35,0,0,0-.9-3.17c-.4-.92-.94-1.37-1.63-1.37a2,2,0,0,0-1.47.62,5,5,0,0,0-1,1.59,12.14,12.14,0,0,0-.69,2.18c-.17.8-.31,1.6-.4,2.37s-.16,1.49-.19,2.13-.05,1.15-.05,1.49q0,.86.12,2.58a21.75,21.75,0,0,0,.52,3.46,11.18,11.18,0,0,0,1.16,3A2.28,2.28,0,0,0,156.26,56.8Zm15.63,2.61V32.83h8V59.41Z"/><path class="cls-1" d="M184.35,30.18H186c.13.57.29,1.21.5,1.92a9.89,9.89,0,0,0,.83,2,5.49,5.49,0,0,0,1.3,1.59,2.91,2.91,0,0,0,1.92.64,2.55,2.55,0,0,0,1.47-.45,7.48,7.48,0,0,0,1.3-1.14c.43-.46.88-1,1.35-1.49a10,10,0,0,1,1.66-1.49,8.78,8.78,0,0,1,2.2-1.14,8.63,8.63,0,0,1,2.91-.45,4.71,4.71,0,0,1,2.84.85,7.67,7.67,0,0,1,2,2.25,12.89,12.89,0,0,1,1.37,3.13,26.26,26.26,0,0,1,.81,3.51,32.86,32.86,0,0,1,.38,3.39c.06,1.07.09,2,.09,2.75V59.42H198.7a10.38,10.38,0,0,0,1.49-2.61,20.07,20.07,0,0,0,.95-3.08,25.61,25.61,0,0,0,.5-3.22c.09-1.07.14-2.08.14-3,0-.41,0-1-.07-1.8s-.14-1.64-.29-2.56-.33-1.86-.57-2.82a15.29,15.29,0,0,0-.9-2.63,6.32,6.32,0,0,0-1.29-1.92,2.37,2.37,0,0,0-1.74-.73,3.19,3.19,0,0,0-2.5,1A7.13,7.13,0,0,0,193,38.74a17.57,17.57,0,0,0-.67,3.65c-.11,1.34-.17,2.66-.17,4s0,2.5.09,3.6.09,2,.09,2.61v5.85c0,.33,0,.67-.05,1h-8V30.18Z"/><path class="cls-1" d="M213.53,26.1a4.81,4.81,0,0,1,1.09-3.2,4.3,4.3,0,0,1,6.16,0,4.8,4.8,0,0,1,1.09,3.2,4.89,4.89,0,0,1-1.09,3.22,4.23,4.23,0,0,1-6.16,0A4.87,4.87,0,0,1,213.53,26.1Zm.19,33.31V32.83h8V59.41Z"/><ellipse class="cls-1" cx="28.32" cy="35.13" rx="27.82" ry="7.15"/><polygon class="cls-2" points="30.85 28.27 30.85 26.67 30.85 25.06 30.85 23.86 31.55 18.84 32.25 14.93 33.34 11.31 34.63 8.91 36.33 7.3 37.82 5.9 39.81 4.29 41.8 3.09 42.89 2.28 44.08 0.68 44.78 0.68 45.38 0.18 45.78 0.68 45.78 1.78 45.78 3.19 45.18 4.79 44.98 6 44.88 7.5 44.68 9.21 44.28 11.82 43.69 13.62 42.59 16.43 41.6 18.44 40.01 20.95 38.31 23.56 37.32 25.16 36.33 27.07 35.93 28.27 30.85 28.27"/><path class="cls-2" d="M10.65.18c0,.41.51,4.6.51,4.6V7.94l.51,1.84.41,1.94.61,1.84.91,2.35,1.92,3.27,2.13,3.27,1.62,2.66.91,1.43.51,1.12v.61h5.37V24.39l-.51-2-.2-1.74-.2-3-.51-1.84L24,13.05l-.81-2.55L22.11,8.87,20.89,7.64,19.46,6.31,18.35,5.08,16.73,4,15,2.73,13.39,1.5l-1-1.33H10.65Z"/><polygon class="cls-3" points="35.19 27.98 36.44 25.24 37.27 23.81 38.68 21.67 40.22 19.13 41.25 17.37 42.09 15.62 42.86 13.67 43.5 11.91 44.2 6.64 44.2 5.6 44.59 4.37 44.91 3.59 44.91 2.41 44.91 2.12 44.91 1.7 44.52 1.7 44.14 1.7 43.82 2.12 43.24 2.74 41.96 4.24 40.48 5.73 38.68 7.94 37.27 9.76 36.12 11.85 35.19 13.67 34.77 15.49 34.26 19.91 34.26 23.16 33.87 25.57 33.42 27.98 35.19 27.98"/><polygon class="cls-3" points="21.61 27.98 20.94 26.02 19.78 24.17 19.11 22.9 18.72 21.83 17.47 20.27 16.41 18.71 15.55 17.15 14.87 15.59 14.01 13.44 13.24 11 12.75 9.05 12.37 6.9 12.37 5.24 12.37 3.88 12.37 2.8 12.37 2.12 13.04 2.12 13.72 2.9 14.3 3.59 14.97 4.66 15.84 5.63 16.99 6.9 17.76 7.88 18.72 9.34 20.17 11.1 20.65 12.37 21.61 14.56 22.19 17.24 22.19 20.46 22.57 22.9 22.96 24.76 22.96 26.02 22.96 27.39 23.25 27.98 21.61 27.98"/><ellipse cx="28.37" cy="35.11" rx="27.77" ry="7.14"/><rect x="11.09" y="34.61" width="34.69" height="26.21"/><path class="cls-2" d="M46.39,54.16l-.26-4.78-.19-4.1-.11-3.71,0-5.12L15,34.44a13.66,13.66,0,0,1-1.31,1,6.78,6.78,0,0,1-2.55,1H11l-.25,7.65-.39,9.56-.32,4.78-.19,2.39h37Z"/><rect class="cls-4" x="4.98" y="60.82" width="218.67" height="1.87"/><polygon class="cls-4" points="11.41 35.89 12.1 35.32 13.17 34.66 14.29 34.17 15.76 33.76 17.9 33.31 20.59 32.87 21.56 32.7 22.78 32.53 24.1 32.53 25.57 32.53 27.13 32.53 29.52 32.53 32.5 32.53 34.06 32.53 36.45 32.7 38.16 32.87 39.56 33.19 40.7 33.43 41.77 33.76 43.04 34.21 44.16 34.66 44.8 35.03 45.39 35.44 45.78 35.89 45.78 36.22 45.39 36.22 44.36 35.89 43.24 35.56 42.21 35.28 40.11 35.23 38.11 35.15 35.82 35.19 32.74 35.36 29.91 35.64 26.54 36.22 23.71 36.91 20.64 37.73 16.44 39.21 13.27 40.64 11.66 41.95 11.09 42.66 11.09 36.22 11.41 35.89"/><polygon class="cls-4" points="24.31 35.01 26.15 35.49 27.78 35.87 29.88 36.42 31.24 36.92 32.74 37.47 34.16 38.02 35.45 38.65 36.45 39.12 37.29 39.54 38.1 40.13 38.78 40.55 40 41.22 41.16 41.6 42.92 42.07 44.28 42.33 45.1 42.49 45.78 42.66 45.78 35.7 42.11 35.01 40.14 34.73 36.45 34.66 33.89 34.61 30.77 34.61 28.34 34.76 25.74 34.9 24.31 35.01"/><polygon class="cls-4" points="11.09 42.66 12.39 42.39 13.49 42.18 14.66 41.81 15.77 41.64 17.43 41.27 19.12 41.1 21.23 40.82 22.56 40.82 26.73 40.82 30.99 40.82 34.37 40.82 35.93 40.82 37.33 40.82 38.43 40.99 39.08 41.16 40.38 41.3 41.36 41.4 42.09 41.32 41.35 40.63 40.54 39.77 40.29 39.46 40.14 39.28 39.88 39.06 39.54 38.77 39.2 38.51 38.82 38.21 38.37 37.84 37.9 37.45 37.47 37.17 36.87 36.78 36.36 36.47 35.8 36.12 35.17 35.73 34.61 35.42 34.09 35.19 33.31 34.85 32.79 34.64 32.14 34.39 31.58 34.15 31.12 33.94 30.82 33.81 30.23 33.89 29.51 34.01 28.66 34.19 27.91 34.35 27.27 34.49 26.53 34.64 25.85 34.85 24.76 35.19 23.7 35.51 22.69 35.85 21.98 36.08 21.14 36.36 20.13 36.75 19.11 37.19 18.02 37.67 17.12 38.06 16.44 38.36 15.5 38.89 14.83 39.27 14.33 39.55 13.82 39.84 13.43 40.05 13.26 40.15 12.87 40.55 12.39 41.03 12.06 41.37 11.66 41.78 11.41 42.15 11.18 42.45 11.09 42.66"/><polyline class="cls-3" points="37.71 45.49 38.41 51.35 38.8 51.36 38.56 50.17 38.25 48.42 38.17 47.44 38.17 46.61 38.07 45.49 38.07 44.46 38.07 43.44 38.17 42.28 38.17 41.82 38.17 41.05 38.07 40.69 37.71 40.64 37.71 41.39 37.71 41.87 37.71 42.28 37.71 43.24 37.71 43.93 37.71 45"/><polygon class="cls-3" points="39.17 55.1 38.8 55.75 38.98 56.56 39.37 57.19 39.71 57.88 39.47 56.49 39.52 55.75 39.17 55.1"/><path d="M25,45.51h0a.08.08,0,0,1,0,0l-.71-.95,0,0-.75-1.19-.05-.06-.65-.49h0l-1-.89-.48-.46a.11.11,0,0,0-.07,0l-.62.09-.87.13-.74.11-.69.11-.91.14-.92.14-1,.15-.69.1-.77.12-.65.1s0,0-.06.06l-.39.85v0l-.37,1.11,0,.06-.34.48-.36.51a.07.07,0,0,1-.11,0l-.2-.18a.92.92,0,0,1-.17-.55l-.05-1.28a.51.51,0,0,1,.05-.3l.31-.51s0,0,0,0l.28,0,.39-.06s.07-.06.09-.15l.25-1.4q0-.13.09-.15l.74-.11.79-.12.54-.08.89-.14.67-.1.72-.11.77-.12.84-.13.89-.13.89-.13.67-.1.7-.11s.09,0,.13.13L23,41.54c0,.09.09.14.13.13l.31-.05s.08,0,.11.09l.56.94s0,0,0,0l1,1.87a.67.67,0,0,1,.06.17l.07.25C25.32,45.39,25.19,45.79,25,45.51Z"/><polyline class="cls-5" points="21.9 40.53 22 41.44 22 42.28 21.9 43.71 21.78 45.29 21.61 46.9 21.3 48.71 20.91 50.54 20.36 52.46 19.73 54.12 18.92 55.75 18.8 56 18.17 55.51 17.28 55.1 16.32 54.88 15.52 54.8 14.68 54.71 13.84 54.63 12.88 54.58 13.45 53.73 13.72 53.22 13.89 52.77 21.9 40.53"/><polygon class="cls-3" points="13.36 41.81 13.36 42.28 13.24 42.93 13.12 43.66 12.92 44.44 12.78 45.07 12.59 45.8 12.42 46.37 12.2 47.1 11.94 47.83 11.62 48.66 11.36 49.34 10.9 50.49 10.52 51.36 10.11 52.15 9.58 52.93 11.72 52.8 13.36 52.73 14.27 52.8 15.69 52.93 16.99 53.24 17.69 53.61 18.65 51.36 19.45 49.54 20.17 47.56 20.7 45.8 21.13 44.07 21.59 42.66 21.8 41.61 21.9 40.53 21.1 40.53 20.23 40.64 19.54 40.73 19.01 40.79 18.34 40.83 17.64 40.95 17.14 41 16.17 41.21 15.47 41.34 14.62 41.47 14.1 41.63 13.36 41.81"/><polygon class="cls-6" points="11.09 50.02 11.72 52.8 9.58 52.93 9.77 52.64 9.92 52.42 10.06 52.2 10.11 52.15 10.22 51.93 10.37 51.63 10.49 51.4 10.65 51.06 10.82 50.67 11.03 50.16 11.09 50.02"/><polygon class="cls-3" points="11.09 38.83 10.49 38.73 9.87 38.58 9.27 38.44 8.4 38.24 7.7 38.05 7 37.83 6.11 37.49 5.34 37.15 4.55 36.8 3.78 36.41 3.18 36 2.77 35.54 3.61 36.05 4.19 36.39 4.91 36.71 5.37 36.88 6.11 37.18 6.93 37.56 7.41 37.76 8.21 38.05 9.07 38.27 9.87 38.44 10.64 38.58 11.09 38.66 11.09 38.83"/><polygon class="cls-3" points="45.78 38.49 46.71 38.32 47.41 38.17 48.28 38 49.27 37.68 50.23 37.37 51.05 37.02 51.72 36.76 52.23 36.46 52.23 36.66 51.55 37 50.95 37.24 50.42 37.48 49.65 37.73 48.64 38 48.06 38.19 47.58 38.27 47.2 38.37 46.69 38.49 46.45 38.49 45.78 38.61 45.78 38.49"/><polygon class="cls-3" points="49.27 32.34 49.82 32.34 50.52 32.46 51.14 32.71 51.84 32.95 52.49 33.35 53.07 33.81 53.21 34.37 53.21 34.61 52.92 34.61 52.9 34.19 52.63 33.68 52.06 33.35 51.67 33.1 51.07 32.9 50.32 32.68 49.27 32.34"/><path class="cls-4" d="M18.81,46.82c0-.14.12-.19.23-.32a1.45,1.45,0,0,0,.29-.79,2.07,2.07,0,0,0-.72-1.81,1.69,1.69,0,0,0-.39-.25,2.39,2.39,0,0,0-.56-.2,1.68,1.68,0,0,0-.58-.09,2,2,0,0,0-.51.15c-.24.09-.44.18-.71.3l-.7.32a5.2,5.2,0,0,0-.65.33,1.64,1.64,0,0,0-.5.46,1.69,1.69,0,0,0-.22.49,2.19,2.19,0,0,0-.1.66,1.44,1.44,0,0,0,0,.41c0,.1.08.16,0,.23s-.08.06-.16.12a.94.94,0,0,0-.2.23,1.42,1.42,0,0,0-.2.49,1.36,1.36,0,0,0,0,.53,2.2,2.2,0,0,0,.22.67,2,2,0,0,0,.41.64,1.87,1.87,0,0,0,.47.32,2.27,2.27,0,0,0,1,.31,2.39,2.39,0,0,0,.91-.2c.12,0,.38-.17.91-.42a6.16,6.16,0,0,0,.74-.38,2.29,2.29,0,0,0,.6-.45A2,2,0,0,0,18.8,48a1.25,1.25,0,0,0,.1-.78C18.87,47,18.79,47,18.81,46.82Z"/><path class="cls-3" d="M18.41,46a1,1,0,0,0,.11-.92.89.89,0,0,0-.13-.18l-.27-.32a.79.79,0,0,0-.23-.21,1.12,1.12,0,0,0-.93-.08l-.53.22-.49.2-.47.2-.4.2a.92.92,0,0,0-.34.23,1.08,1.08,0,0,0-.25.75,1.39,1.39,0,0,0,.15.61,1.2,1.2,0,0,0,.44.44,1.17,1.17,0,0,0,.65.18,1.15,1.15,0,0,0,.56-.17l.41-.14.2-.06a.41.41,0,0,1,.38.07.35.35,0,0,1,.1.25.32.32,0,0,1-.08.21.36.36,0,0,1-.15.11l-.33.19-.35.18-.42.21-.37.19a.55.55,0,0,1-.23.1.44.44,0,0,1-.42-.12.48.48,0,0,1-.08-.4l-.37-.25-.38-.25a1.39,1.39,0,0,0,.4,1.55,1.37,1.37,0,0,0,.9.19A1.74,1.74,0,0,0,16,49l.42-.18.38-.18.32-.15.32-.14a2.08,2.08,0,0,0,.26-.18,1.52,1.52,0,0,0,.32-.29,1.07,1.07,0,0,0,.19-.67,1.05,1.05,0,0,0-.22-.56,1.53,1.53,0,0,0-.41-.4,1.36,1.36,0,0,0-.76-.18,1.26,1.26,0,0,0-.35.07l-.24.1-.27.13a.5.5,0,0,1-.15.08.41.41,0,0,1-.49-.53.39.39,0,0,1,.23-.17l.37-.14.44-.18.51-.22a2.08,2.08,0,0,1,.3-.13l.24-.07a.31.31,0,0,1,.25.07.26.26,0,0,1,.05.2.65.65,0,0,1,0,.24l.2.09.25.12.14.08Z"/><path d="M59.67,59.56V23.18h8v20a11.24,11.24,0,0,1,2-2,21.3,21.3,0,0,1,2.75-1.85,19.4,19.4,0,0,1,3-1.37,8.32,8.32,0,0,1,2.75-.55,4.89,4.89,0,0,1,.66.05,1.29,1.29,0,0,1,.62.28V23.17h8V59.55h-8V42.35A1.62,1.62,0,0,0,78.81,41a2.23,2.23,0,0,0-1.42-.47,7.92,7.92,0,0,0-2.68.52,16.52,16.52,0,0,0-2.82,1.35,15.75,15.75,0,0,0-2.51,1.87,7.92,7.92,0,0,0-1.71,2.13V59.55h-8Z"/><path d="M90.5,46.53a18.57,18.57,0,0,1,.71-5.12,12.58,12.58,0,0,1,2.16-4.33,10.86,10.86,0,0,1,3.6-3,11.76,11.76,0,0,1,10.1,0,10.86,10.86,0,0,1,3.6,3,13,13,0,0,1,2.16,4.33,18.82,18.82,0,0,1,0,10.24A12.58,12.58,0,0,1,110.67,56a10.86,10.86,0,0,1-3.6,3,10.66,10.66,0,0,1-5,1.14A11,11,0,0,1,96.93,59a10.25,10.25,0,0,1-3.58-3,13.23,13.23,0,0,1-2.13-4.36A18.15,18.15,0,0,1,90.5,46.53Zm16.25,10.71a1.32,1.32,0,0,0,.83-.24,1.36,1.36,0,0,0,.45-.59,3.07,3.07,0,0,0,.19-.78,7.63,7.63,0,0,0,0-.8,10.45,10.45,0,0,0-.52-2.68,37.46,37.46,0,0,0-1.4-3.88c-.58-1.41-1.26-2.84-2-4.31a41.87,41.87,0,0,0-2.37-4,17.42,17.42,0,0,0-2.44-3,3.51,3.51,0,0,0-2.27-1.16,1.18,1.18,0,0,0-1.23.71A3.88,3.88,0,0,0,95.72,38a10.79,10.79,0,0,0,.52,2.8c.35,1.2.81,2.52,1.37,4a47.75,47.75,0,0,0,2,4.36,40.83,40.83,0,0,0,2.37,4,16.77,16.77,0,0,0,2.46,3A3.65,3.65,0,0,0,106.75,57.24Z"/><path d="M116.61,33h8v14.5c0,.47,0,1.14.14,2a14.54,14.54,0,0,0,.52,2.56,7.65,7.65,0,0,0,1,2.23,2.05,2.05,0,0,0,1.75.95,3.11,3.11,0,0,0,2.63-1.42,10.38,10.38,0,0,0,1.54-3.36,24,24,0,0,0,.71-3.93c.13-1.33.19-2.38.19-3.17a19.43,19.43,0,0,0-.19-2.65,22,22,0,0,0-.57-2.8,17.1,17.1,0,0,0-1-2.65A10.07,10.07,0,0,0,130,33h11.13V59.54h-8V54.19a8.64,8.64,0,0,1-1.42,2.08,12.2,12.2,0,0,1-2,1.78,10.79,10.79,0,0,1-2.37,1.26,6.94,6.94,0,0,1-2.49.47,6.28,6.28,0,0,1-3-.69,6.79,6.79,0,0,1-2.18-1.85,10.49,10.49,0,0,1-1.49-2.68,20.94,20.94,0,0,1-1-3.1,20.57,20.57,0,0,1-.47-3.17q-.12-1.59-.12-2.91V33Z"/><path d="M144.22,46.53a24.52,24.52,0,0,1,.43-4.38,15.5,15.5,0,0,1,1.47-4.43,10.33,10.33,0,0,1,2.75-3.41,6.49,6.49,0,0,1,4.22-1.37,6.67,6.67,0,0,1,3.48.88,10.29,10.29,0,0,1,2.72,2.39q-.09-3.18-.5-6.63a30.47,30.47,0,0,0-1.44-6.44h.71a2.37,2.37,0,0,0,1.14.52,8.48,8.48,0,0,0,1.23.09,15.56,15.56,0,0,0,3.51-.4q1.76-.41,3.48-.9c1.15-.33,2.31-.63,3.46-.9a15.41,15.41,0,0,1,3.53-.4,6.44,6.44,0,0,1,4.05,1.26,4.51,4.51,0,0,1,1.63,3.81A4.89,4.89,0,0,1,179,29.44a3.78,3.78,0,0,1-3.08,1.33,3.73,3.73,0,0,1-3.08-1.35,4.93,4.93,0,0,1-1.09-3.2,5.42,5.42,0,0,1,.4-2.08,3.73,3.73,0,0,1,1.35-1.66l-.69-.07c-.21,0-.43,0-.69,0a11.83,11.83,0,0,0-2.44.26c-.81.17-1.6.35-2.39.54V59.53h-8V56.88a10.11,10.11,0,0,1-2.72,2.39,6.82,6.82,0,0,1-3.48.88,6.56,6.56,0,0,1-4.22-1.37,10.45,10.45,0,0,1-2.75-3.41,15.71,15.71,0,0,1-1.47-4.43A27.08,27.08,0,0,1,144.22,46.53Zm12,10.38a1.44,1.44,0,0,0,1.16-.64,5.53,5.53,0,0,0,.83-1.63,14.89,14.89,0,0,0,.54-2.23q.21-1.23.33-2.37c.08-.76.13-1.45.14-2.08s0-1.09,0-1.37q0-.66-.09-2.37a31.73,31.73,0,0,0-.4-3.51,14.35,14.35,0,0,0-.9-3.17c-.4-.92-.94-1.37-1.63-1.37a2,2,0,0,0-1.47.62,5,5,0,0,0-1,1.59,12.14,12.14,0,0,0-.69,2.18c-.17.8-.31,1.6-.4,2.37s-.16,1.49-.19,2.13-.05,1.15-.05,1.49q0,.86.12,2.58a21.75,21.75,0,0,0,.52,3.46,11.18,11.18,0,0,0,1.16,3A2.28,2.28,0,0,0,156.26,56.91Zm15.63,2.61V32.94h8V59.52Z"/><path d="M184.35,30.29H186c.13.57.29,1.21.5,1.92a9.89,9.89,0,0,0,.83,2,5.49,5.49,0,0,0,1.3,1.59,2.91,2.91,0,0,0,1.92.64A2.55,2.55,0,0,0,192,36a7.48,7.48,0,0,0,1.3-1.14c.43-.46.88-1,1.35-1.49a10,10,0,0,1,1.66-1.49,8.78,8.78,0,0,1,2.2-1.14,8.63,8.63,0,0,1,2.91-.45,4.71,4.71,0,0,1,2.84.85,7.67,7.67,0,0,1,2,2.25,12.89,12.89,0,0,1,1.37,3.13,26.26,26.26,0,0,1,.81,3.51,32.86,32.86,0,0,1,.38,3.39c.06,1.07.09,2,.09,2.75V59.53H198.7a10.38,10.38,0,0,0,1.49-2.61,20.07,20.07,0,0,0,.95-3.08,25.61,25.61,0,0,0,.5-3.22c.09-1.07.14-2.08.14-3,0-.41,0-1-.07-1.8s-.14-1.64-.29-2.56-.33-1.86-.57-2.82a15.29,15.29,0,0,0-.9-2.63,6.32,6.32,0,0,0-1.29-1.92,2.37,2.37,0,0,0-1.74-.73,3.19,3.19,0,0,0-2.5,1A7.13,7.13,0,0,0,193,38.85a17.57,17.57,0,0,0-.67,3.65c-.11,1.34-.17,2.66-.17,4s0,2.5.09,3.6.09,2,.09,2.61v5.85c0,.33,0,.67-.05,1h-8V30.29Z"/><path d="M213.53,26.21a4.81,4.81,0,0,1,1.09-3.2,4.3,4.3,0,0,1,6.16,0,4.8,4.8,0,0,1,1.09,3.2,4.89,4.89,0,0,1-1.09,3.22,4.23,4.23,0,0,1-6.16,0A4.87,4.87,0,0,1,213.53,26.21Zm.19,33.31V32.94h8V59.52Z"/></g></g></svg>