<svg width="28" height="30" viewBox="0 0 28 30" fill="none" xmlns="http://www.w3.org/2000/svg">
<path fill-rule="evenodd" clip-rule="evenodd" d="M17.0132 9.83855C16.6644 9.47275 16.2551 9.16199 15.8008 8.92157C15.6522 8.21231 15.6737 7.21588 15.8988 6.15407C16.3052 4.23652 17.2218 2.8325 17.9455 3.01788C18.6696 3.20327 18.927 4.90771 18.5203 6.82526C18.2103 8.2868 17.6045 9.44999 17.0132 9.83855M11.7853 8.68239C11.172 8.91784 10.6212 9.2733 10.1644 9.71937C9.7866 8.85288 9.33101 8.04183 8.79886 7.28582C9.32108 6.68001 9.73653 5.95462 10.0456 5.10964C10.2132 4.63708 10.4615 4.47529 10.6895 4.53198C10.855 4.57294 11.1037 4.72398 11.2072 5.0484C11.6065 6.27532 11.7993 7.48651 11.7853 8.68239V8.68239ZM13.5298 8.36128C13.277 8.36128 13.0291 8.38073 12.7871 8.41756C12.6505 6.67091 12.2868 5.14275 11.6959 3.83307C11.3061 2.96947 10.6639 1.64448 9.63515 1.45372C8.93831 1.32462 8.28906 1.75331 7.77222 2.44146C7.32242 3.04023 6.97276 3.83638 6.78035 4.63253C6.55896 5.54744 6.51634 7.66693 7.08408 8.39894C7.36422 8.76019 7.76891 8.62942 8.29775 8.00707C8.89073 8.90419 9.32439 9.69744 9.59832 10.3864C9.08604 11.1205 8.78686 12.0056 8.78686 12.9582V12.9644C10.2141 13.1841 11.7261 13.3021 13.2915 13.3021C15.0323 13.3021 16.7074 13.156 18.2732 12.8866V12.8895C18.2629 12.1989 18.0953 11.5446 17.8036 10.9599C18.5455 9.99869 19.2262 8.41756 19.6235 6.55256C20.3236 3.26658 19.8804 0.345565 18.6332 0.02818C17.386 -0.289618 15.8074 2.11704 15.1072 5.40261C14.8705 6.51284 14.765 7.58127 14.7762 8.52184C14.3794 8.41715 13.9618 8.36128 13.5307 8.36128H13.5298Z" fill="black"/>
<path fill-rule="evenodd" clip-rule="evenodd" d="M7.17047 24.2748C7.16261 24.5106 7.15185 24.7349 7.13778 24.9476C7.08978 25.6796 7.54124 25.5116 8.2447 25.7223C11.8054 26.787 15.3215 26.7758 18.7916 25.6875C19.4512 25.481 19.882 25.7123 19.882 25.0213V24.2748C15.5896 25.4454 11.3523 25.4454 7.17047 24.2748M8.68994 10.8879C6.68136 11.2177 5.3783 11.7486 5.3783 12.347C5.3783 12.3776 5.38203 12.4078 5.38865 12.438C5.61665 14.488 5.71969 16.2289 5.69734 17.661C5.54341 19.0477 5.80245 20.894 5.84052 22.3283C1.92473 22.9754 -0.19558 24.1614 0.0142163 25.534C0.387878 27.9754 4.31443 28.796 7.99973 29.139C12.6119 29.5685 14.6834 29.576 19.3383 29.108C22.9271 28.7467 26.6389 27.905 27.0018 25.534C27.212 24.1618 25.0913 22.9759 21.1755 22.3291C21.2215 20.6118 21.2492 19.3208 21.2782 18.3248C21.3361 16.3282 21.3969 14.4884 21.6274 12.4409C21.6344 12.4099 21.6377 12.3789 21.6377 12.3478C21.6377 11.7644 20.4005 11.2459 18.4788 10.9144C18.61 11.2012 18.7151 11.502 18.7912 11.8132C19.6635 12.028 20.1828 12.2973 20.1828 12.5899C20.1828 13.2921 17.1944 13.8615 13.5078 13.8615C9.82127 13.8615 6.83281 13.2921 6.83281 12.5899C6.83281 12.2808 7.41172 11.9978 8.37422 11.7772C8.45201 11.4693 8.55794 11.1718 8.68953 10.8884L8.68994 10.8879Z" fill="black"/>
</svg>
