<svg width="1098" height="283" viewBox="0 0 1098 283" fill="none" xmlns="http://www.w3.org/2000/svg">
<path fill-rule="evenodd" clip-rule="evenodd" d="M181.432 94.5111C178.081 90.9972 174.15 88.0119 169.785 85.7024C168.358 78.8892 168.565 69.3173 170.727 59.1173C174.631 40.6969 183.436 27.2096 190.388 28.9904C197.344 30.7712 199.817 47.1445 195.909 65.5648C192.932 79.6047 187.113 90.7786 181.432 94.5111M131.212 83.4049C125.321 85.6667 120.03 89.0812 115.641 93.3663C112.012 85.0426 107.636 77.2515 102.524 69.9891C107.54 64.1696 111.531 57.2013 114.5 49.0843C116.11 44.5448 118.495 42.9905 120.686 43.5351C122.276 43.9287 124.665 45.3796 125.658 48.496C129.494 60.282 131.347 71.917 131.212 83.4049V83.4049ZM147.97 80.3202C145.542 80.3202 143.161 80.507 140.835 80.8608C139.523 64.0821 136.029 49.4023 130.353 36.8213C126.608 28.5253 120.439 15.7972 110.557 13.9647C103.863 12.7245 97.6264 16.8427 92.6615 23.4532C88.3406 29.2051 84.9817 36.8531 83.1333 44.5011C81.0067 53.2899 80.5973 73.6501 86.051 80.682C88.7421 84.1522 92.6297 82.8961 97.7098 76.9176C103.406 85.5355 107.572 93.1557 110.203 99.7741C105.282 106.826 102.408 115.328 102.408 124.479V124.539C116.118 126.649 130.643 127.782 145.681 127.782C162.404 127.782 178.495 126.379 193.536 123.791V123.819C193.437 117.185 191.827 110.9 189.025 105.284C196.152 96.0495 202.691 80.8608 206.507 62.9453C213.233 31.3794 208.975 3.31956 196.995 0.270703C185.014 -2.78213 169.849 20.3367 163.123 51.8986C160.849 62.5637 159.836 72.8273 159.943 81.8625C156.131 80.8569 152.12 80.3202 147.978 80.3202H147.97Z" fill="#1B202E"/>
<path fill-rule="evenodd" clip-rule="evenodd" d="M86.881 233.189C86.8055 235.454 86.7022 237.609 86.567 239.652C86.1059 246.684 90.4427 245.07 97.2003 247.093C131.406 257.321 165.182 257.214 198.516 246.759C204.853 244.776 208.991 246.998 208.991 240.36V233.189C167.757 244.434 127.053 244.434 86.881 233.189M101.477 104.592C82.1825 107.76 69.6651 112.86 69.6651 118.608C69.6651 118.902 69.7009 119.192 69.7645 119.482C71.9547 139.175 72.9445 155.898 72.7299 169.655C71.2512 182.976 73.7395 200.712 74.1052 214.49C36.4894 220.707 16.1212 232.099 18.1366 245.285C21.726 268.737 59.4453 276.62 94.847 279.915C139.153 284.041 159.052 284.113 203.767 279.617C238.243 276.147 273.899 268.062 277.385 245.285C279.405 232.103 259.032 220.711 221.417 214.498C221.858 198.001 222.124 185.599 222.402 176.031C222.959 156.852 223.543 139.179 225.757 119.51C225.825 119.212 225.857 118.914 225.857 118.616C225.857 113.011 213.971 108.03 195.511 104.846C196.771 107.601 197.781 110.491 198.512 113.48C206.892 115.543 211.88 118.131 211.88 120.941C211.88 127.687 183.173 133.157 147.759 133.157C112.345 133.157 83.6374 127.687 83.6374 120.941C83.6374 117.972 89.1985 115.253 98.4445 113.134C99.1918 110.177 100.209 107.319 101.473 104.596L101.477 104.592Z" fill="#1B202E"/>
<path d="M314.531 214V68.5455H349.687V126.926H407.002V68.5455H442.088V214H407.002V155.548H349.687V214H314.531ZM515.063 216.06C503.605 216.06 493.757 213.716 485.518 209.028C477.327 204.294 471.006 197.712 466.555 189.284C462.151 180.809 459.95 170.984 459.95 159.81C459.95 148.588 462.151 138.763 466.555 130.335C471.006 121.86 477.327 115.278 485.518 110.591C493.757 105.856 503.605 103.489 515.063 103.489C526.522 103.489 536.347 105.856 544.538 110.591C552.776 115.278 559.098 121.86 563.501 130.335C567.952 138.763 570.177 148.588 570.177 159.81C570.177 170.984 567.952 180.809 563.501 189.284C559.098 197.712 552.776 204.294 544.538 209.028C536.347 213.716 526.522 216.06 515.063 216.06ZM515.276 189.852C519.443 189.852 522.971 188.574 525.859 186.017C528.747 183.46 530.949 179.909 532.464 175.364C534.026 170.818 534.808 165.562 534.808 159.597C534.808 153.536 534.026 148.233 532.464 143.688C530.949 139.142 528.747 135.591 525.859 133.034C522.971 130.477 519.443 129.199 515.276 129.199C510.968 129.199 507.322 130.477 504.339 133.034C501.403 135.591 499.154 139.142 497.592 143.688C496.077 148.233 495.319 153.536 495.319 159.597C495.319 165.562 496.077 170.818 497.592 175.364C499.154 179.909 501.403 183.46 504.339 186.017C507.322 188.574 510.968 189.852 515.276 189.852ZM658.352 166.912V104.909H693.011V214H659.914V193.688H658.778C656.363 200.364 652.244 205.667 646.42 209.597C640.643 213.479 633.66 215.42 625.468 215.42C618.035 215.42 611.5 213.716 605.866 210.307C600.231 206.898 595.852 202.139 592.727 196.031C589.602 189.876 588.016 182.679 587.968 174.44V104.909H622.698V167.622C622.746 173.541 624.308 178.205 627.386 181.614C630.464 185.023 634.654 186.727 639.957 186.727C643.413 186.727 646.515 185.97 649.261 184.455C652.054 182.892 654.256 180.643 655.866 177.707C657.523 174.724 658.352 171.126 658.352 166.912ZM754.96 215.562C746.911 215.562 739.596 213.479 733.014 209.312C726.433 205.146 721.177 198.896 717.247 190.562C713.317 182.229 711.352 171.884 711.352 159.526C711.352 146.694 713.388 136.135 717.46 127.849C721.532 119.563 726.859 113.432 733.441 109.455C740.069 105.477 747.195 103.489 754.818 103.489C760.548 103.489 765.448 104.483 769.52 106.472C773.592 108.413 776.954 110.922 779.605 114C782.257 117.078 784.269 120.274 785.642 123.588H786.352V68.5455H821.083V214H786.708V196.315H785.642C784.174 199.677 782.091 202.826 779.392 205.761C776.693 208.697 773.308 211.064 769.236 212.864C765.211 214.663 760.453 215.562 754.96 215.562ZM767.034 188.503C771.248 188.503 774.847 187.319 777.83 184.952C780.813 182.537 783.109 179.152 784.719 174.795C786.329 170.439 787.134 165.326 787.134 159.455C787.134 153.489 786.329 148.351 784.719 144.043C783.156 139.734 780.86 136.42 777.83 134.099C774.847 131.779 771.248 130.619 767.034 130.619C762.726 130.619 759.08 131.803 756.097 134.17C753.114 136.538 750.841 139.876 749.279 144.185C747.763 148.493 747.006 153.583 747.006 159.455C747.006 165.326 747.787 170.439 749.35 174.795C750.912 179.152 753.161 182.537 756.097 184.952C759.08 187.319 762.726 188.503 767.034 188.503ZM843.046 214V104.909H877.776V214H843.046ZM860.447 92.196C855.57 92.196 851.38 90.5862 847.876 87.3665C844.372 84.0994 842.62 80.1695 842.62 75.5767C842.62 71.0312 844.372 67.1487 847.876 63.929C851.38 60.6619 855.57 59.0284 860.447 59.0284C865.371 59.0284 869.562 60.6619 873.018 63.929C876.522 67.1487 878.274 71.0312 878.274 75.5767C878.274 80.1695 876.522 84.0994 873.018 87.3665C869.562 90.5862 865.371 92.196 860.447 92.196ZM934.612 151.784V214H899.882V104.909H932.908V124.938H934.115C936.53 118.261 940.649 113.029 946.473 109.241C952.297 105.406 959.234 103.489 967.283 103.489C974.953 103.489 981.606 105.217 987.24 108.673C992.922 112.082 997.325 116.865 1000.45 123.02C1003.62 129.128 1005.19 136.277 1005.14 144.469V214H970.408V151.287C970.455 145.226 968.916 140.491 965.791 137.082C962.714 133.673 958.429 131.969 952.936 131.969C949.29 131.969 946.071 132.774 943.277 134.384C940.531 135.946 938.4 138.195 936.885 141.131C935.417 144.066 934.66 147.617 934.612 151.784ZM1026.64 214V104.909H1061.37V214H1026.64ZM1044.04 92.196C1039.16 92.196 1034.97 90.5862 1031.47 87.3665C1027.97 84.0994 1026.21 80.1695 1026.21 75.5767C1026.21 71.0312 1027.97 67.1487 1031.47 63.929C1034.97 60.6619 1039.16 59.0284 1044.04 59.0284C1048.96 59.0284 1053.16 60.6619 1056.61 63.929C1060.12 67.1487 1061.87 71.0312 1061.87 75.5767C1061.87 80.1695 1060.12 84.0994 1056.61 87.3665C1053.16 90.5862 1048.96 92.196 1044.04 92.196Z" fill="#1B202E"/>
</svg>