<?xml version="1.0" encoding="UTF-8" standalone="no"?>
<!DOCTYPE svg PUBLIC "-//W3C//DTD SVG 1.1//EN"
 "http://www.w3.org/Graphics/SVG/1.1/DTD/svg11.dtd">
<!-- Generated by graphviz version 6.0.1 (20220911.1526)
 -->
<!-- Title: G Pages: 1 -->
<svg width="406pt" height="125pt"
 viewBox="0.00 0.00 406.20 125.20" xmlns="http://www.w3.org/2000/svg" xmlns:xlink="http://www.w3.org/1999/xlink">
<g id="graph0" class="graph" transform="scale(1 1) rotate(0) translate(21.6 103.6)">
<title>G</title>
<polygon fill="#111111" stroke="none" points="-21.6,21.6 -21.6,-103.6 384.6,-103.6 384.6,21.6 -21.6,21.6"/>
<!-- ../lib/config.ts -->
<g id="node1" class="node">
<title>../lib/config.ts</title>
<path fill="none" stroke="#ff6c60" d="M87.33,-64C87.33,-64 7.67,-64 7.67,-64 3.83,-64 0,-60.17 0,-56.33 0,-56.33 0,-48.67 0,-48.67 0,-44.83 3.83,-41 7.67,-41 7.67,-41 87.33,-41 87.33,-41 91.17,-41 95,-44.83 95,-48.67 95,-48.67 95,-56.33 95,-56.33 95,-60.17 91.17,-64 87.33,-64"/>
<text text-anchor="middle" x="47.5" y="-48.8" font-family="Arial" font-size="14.00" fill="#ff6c60">../lib/config.ts</text>
</g>
<!-- ../lib/graphql.ts -->
<g id="node2" class="node">
<title>../lib/graphql.ts</title>
<path fill="none" stroke="#ff6c60" d="M355.33,-64C355.33,-64 266.67,-64 266.67,-64 262.83,-64 259,-60.17 259,-56.33 259,-56.33 259,-48.67 259,-48.67 259,-44.83 262.83,-41 266.67,-41 266.67,-41 355.33,-41 355.33,-41 359.17,-41 363,-44.83 363,-48.67 363,-48.67 363,-56.33 363,-56.33 363,-60.17 359.17,-64 355.33,-64"/>
<text text-anchor="middle" x="311" y="-48.8" font-family="Arial" font-size="14.00" fill="#ff6c60">../lib/graphql.ts</text>
</g>
<!-- ../lib/config.ts&#45;&gt;../lib/graphql.ts -->
<g id="edge1" class="edge">
<title>../lib/config.ts&#45;&gt;../lib/graphql.ts</title>
<path fill="none" stroke="#757575" d="M85.5,-64.01C99.59,-67.84 115.9,-71.61 131,-73.5 171.57,-78.58 182.4,-78.33 223,-73.5 235.42,-72.02 248.62,-69.4 260.9,-66.5"/>
<polygon fill="#757575" stroke="#757575" points="262.08,-69.81 270.95,-64.01 260.4,-63.01 262.08,-69.81"/>
</g>
<!-- ../lib/types.ts -->
<g id="node3" class="node">
<title>../lib/types.ts</title>
<path fill="none" stroke="#ff6c60" d="M215.33,-64C215.33,-64 138.67,-64 138.67,-64 134.83,-64 131,-60.17 131,-56.33 131,-56.33 131,-48.67 131,-48.67 131,-44.83 134.83,-41 138.67,-41 138.67,-41 215.33,-41 215.33,-41 219.17,-41 223,-44.83 223,-48.67 223,-48.67 223,-56.33 223,-56.33 223,-60.17 219.17,-64 215.33,-64"/>
<text text-anchor="middle" x="177" y="-48.8" font-family="Arial" font-size="14.00" fill="#ff6c60">../lib/types.ts</text>
</g>
<!-- ../lib/config.ts&#45;&gt;../lib/types.ts -->
<g id="edge2" class="edge">
<title>../lib/config.ts&#45;&gt;../lib/types.ts</title>
<path fill="none" stroke="#757575" d="M95.25,-45.97C103.54,-45.75 112.24,-45.7 120.73,-45.8"/>
<polygon fill="#757575" stroke="#757575" points="120.88,-49.31 130.95,-46.02 121.03,-42.31 120.88,-49.31"/>
</g>
<!-- plugin.ts -->
<g id="node4" class="node">
<title>plugin.ts</title>
<path fill="none" stroke="#ff6c60" d="M202.83,-23C202.83,-23 151.17,-23 151.17,-23 147.33,-23 143.5,-19.17 143.5,-15.33 143.5,-15.33 143.5,-7.67 143.5,-7.67 143.5,-3.83 147.33,0 151.17,0 151.17,0 202.83,0 202.83,0 206.67,0 210.5,-3.83 210.5,-7.67 210.5,-7.67 210.5,-15.33 210.5,-15.33 210.5,-19.17 206.67,-23 202.83,-23"/>
<text text-anchor="middle" x="177" y="-7.8" font-family="Arial" font-size="14.00" fill="#ff6c60">plugin.ts</text>
</g>
<!-- ../lib/config.ts&#45;&gt;plugin.ts -->
<g id="edge3" class="edge">
<title>../lib/config.ts&#45;&gt;plugin.ts</title>
<path fill="none" stroke="#757575" d="M68.7,-40.91C86.12,-33.7 111.84,-24.99 133.73,-18.7"/>
<polygon fill="#757575" stroke="#757575" points="134.78,-22.04 143.48,-15.99 132.91,-15.29 134.78,-22.04"/>
</g>
<!-- ../lib/graphql.ts&#45;&gt;../lib/graphql.ts -->
<g id="edge4" class="edge">
<title>../lib/graphql.ts&#45;&gt;../lib/graphql.ts</title>
<path fill="none" stroke="#757575" d="M289.12,-64.01C280.94,-72.91 288.23,-82 311,-82 324.88,-82 333,-78.63 335.38,-73.97"/>
<polygon fill="#757575" stroke="#757575" points="338.71,-72.85 332.88,-64.01 331.92,-74.56 338.71,-72.85"/>
</g>
<!-- ../lib/types.ts&#45;&gt;../lib/config.ts -->
<g id="edge5" class="edge">
<title>../lib/types.ts&#45;&gt;../lib/config.ts</title>
<path fill="none" stroke="#757575" d="M130.95,-58.98C122.73,-59.22 114.04,-59.3 105.52,-59.22"/>
<polygon fill="#757575" stroke="#757575" points="105.31,-55.71 95.25,-59.03 105.19,-62.71 105.31,-55.71"/>
</g>
<!-- ../lib/types.ts&#45;&gt;../lib/graphql.ts -->
<g id="edge6" class="edge">
<title>../lib/types.ts&#45;&gt;../lib/graphql.ts</title>
<path fill="none" stroke="#757575" d="M223.06,-52.5C231.32,-52.5 240.08,-52.5 248.73,-52.5"/>
<polygon fill="#757575" stroke="#757575" points="248.79,-56 258.79,-52.5 248.79,-49 248.79,-56"/>
</g>
<!-- plugin.ts&#45;&gt;../lib/config.ts -->
<g id="edge7" class="edge">
<title>plugin.ts&#45;&gt;../lib/config.ts</title>
<path fill="none" stroke="#757575" d="M155.91,-23.04C142.14,-28.75 123.15,-35.4 104.95,-41.06"/>
<polygon fill="#757575" stroke="#757575" points="103.81,-37.75 95.25,-44 105.84,-44.45 103.81,-37.75"/>
</g>
<!-- plugin.ts&#45;&gt;../lib/graphql.ts -->
<g id="edge8" class="edge">
<title>plugin.ts&#45;&gt;../lib/graphql.ts</title>
<path fill="none" stroke="#757575" d="M210.63,-21.63C226.33,-26.51 245.45,-32.45 262.71,-37.81"/>
<polygon fill="#757575" stroke="#757575" points="262.02,-41.26 272.61,-40.89 264.1,-34.58 262.02,-41.26"/>
</g>
</g>
</svg>
